PathFileType	4	(X/Y/Z)	 s06c0402.trc
DataRate	CameraRate	NumFrames	NumMarkers	Units	OrigDataRate	OrigDataStartFrame	OrigNumFrames
200	200	6	48	mm	200	1251	2000
Frame#	Time	racr			lacr			c7			jug			rlel			rdr			llel			ldr			s2			lic			ric			lasi			rasi			rpsi			lpsi			rgt			lgt			rth1			rth2			rth3			rth4			rlfc			rmfc			rsh1			rsh2			rsh3			rsh4			rlmal			rcal			rtoe			rmt5			lth1			lth2			lth4			lth3			llfc			lmfc			llmal			lcal			lmt5			lsh1			lsh2			lsh3			lsh4			ltoe			SBIKE			LBIKE			RBIKE			
		X1	Y1	Z1	X2	Y2	Z2	X3	Y3	Z3	X4	Y4	Z4	X5	Y5	Z5	X6	Y6	Z6	X7	Y7	Z7	X8	Y8	Z8	X9	Y9	Z9	X10	Y10	Z10	X11	Y11	Z11	X12	Y12	Z12	X13	Y13	Z13	X14	Y14	Z14	X15	Y15	Z15	X16	Y16	Z16	X17	Y17	Z17	X18	Y18	Z18	X19	Y19	Z19	X20	Y20	Z20	X21	Y21	Z21	X22	Y22	Z22	X23	Y23	Z23	X24	Y24	Z24	X25	Y25	Z25	X26	Y26	Z26	X27	Y27	Z27	X28	Y28	Z28	X29	Y29	Z29	X30	Y30	Z30	X31	Y31	Z31	X32	Y32	Z32	X33	Y33	Z33	X34	Y34	Z34	X35	Y35	Z35	X36	Y36	Z36	X37	Y37	Z37	X38	Y38	Z38	X39	Y39	Z39	X40	Y40	Z40	X41	Y41	Z41	X42	Y42	Z42	X43	Y43	Z43	X44	Y44	Z44	X45	Y45	Z45	X46	Y46	Z46	X47	Y47	Z47	X48	Y48	Z48	
1251	6.2550	715.476369	1279.906128	-27.693542	737.176843	1225.072611	-352.462449	741.712424	1355.778629	-190.439035	703.583701	1198.552225	-179.433720	558.857537	1083.470235	101.318493	681.373141	943.244532	-29.635786	530.567637	1073.760945	-480.311264	662.844727	926.592516	-384.106913	178.652119	1203.487822	-235.951791	351.580243	1120.755118	-374.296771	300.725409	1184.799432	-54.865891	351.701997	1064.261215	-337.732558	334.003500	1136.296758	-83.533490	214.010828	1241.021653	-209.705501	221.810329	1231.146783	-267.697804	285.937515	1126.732760	-15.164104	283.838748	1042.875986	-402.203185	392.480951	1047.899290	-16.612630	474.305021	1010.764118	-26.690406	523.119716	941.325284	-27.935664	492.334683	1036.343301	-48.986029	571.409313	852.993764	-59.250278	553.327010	834.036566	-172.445333	486.817603	765.513153	-33.350358	431.648044	702.000497	-50.941497	349.602019	667.452564	-48.112204	443.890177	686.180841	-87.101542	270.440563	624.415759	-50.598041	201.789454	642.742922	-96.652422	377.885612	430.346172	-102.380769	300.340219	487.670348	-29.971113	257.685152	921.471929	-423.517281	277.593874	836.616385	-422.954586	314.458289	835.210772	-414.607316	251.562404	751.227522	-414.068081	243.464089	635.653088	-389.980982	252.144846	614.495738	-272.565842	135.924586	287.453442	-367.932428	75.410960	304.480099	-319.256666	195.916058	150.743619	-401.912495	207.749550	534.152761	-407.144094	207.485099	448.481565	-391.359805	163.041869	371.738347	-381.232467	238.083112	444.330492	-366.860811	266.464102	96.316818	-346.426098	-156.728670	857.509838	-214.245174	-49.650188	83.773019	-414.573724	-49.388504	79.980392	-17.138190	
1252	6.2600	715.691355	1278.090866	-26.729581	737.560430	1223.989604	-351.517940	742.323301	1354.516846	-189.316271	703.330013	1197.121056	-178.844722	557.734637	1082.496177	101.718839	681.034013	943.507671	-29.865542	531.234021	1073.526566	-480.939120	663.017314	926.250202	-384.389288	178.094653	1206.051675	-236.180487	351.610602	1122.341195	-373.784212	301.694833	1187.647773	-54.729310	350.980447	1066.142630	-337.060547	334.143242	1138.369312	-83.118713	214.175328	1243.769878	-210.274665	222.011006	1233.495681	-268.023259	285.777864	1130.681382	-15.462727	283.568481	1044.928313	-402.057688	391.493482	1051.319168	-16.237735	472.772822	1014.290704	-25.995569	522.508594	943.705662	-29.009631	491.365502	1039.270924	-49.434628	571.500285	855.518304	-60.004954	553.376162	837.386005	-173.483433	487.456788	766.748190	-33.592072	433.702244	701.820511	-50.968901	352.420596	665.751012	-48.119792	446.291346	686.124620	-87.040418	274.036812	620.382588	-50.761732	204.526780	636.228951	-96.466963	389.379435	431.092959	-102.069734	309.130910	485.098441	-30.003207	258.030634	923.032290	-423.430766	278.753679	838.336087	-423.319826	315.574033	837.210382	-414.720849	253.389049	752.680770	-414.729703	245.524070	637.437386	-390.028327	254.458489	616.339323	-272.454524	130.113784	292.171102	-367.441280	70.188789	310.728483	-318.802032	186.256506	153.941291	-401.673622	207.896235	536.883868	-406.949508	205.605547	451.333267	-390.851458	159.396586	375.676545	-380.703406	236.052068	446.433072	-366.336358	255.394848	97.537375	-346.400222	-156.804429	857.545288	-214.232929	-49.661108	83.827031	-414.550820	-49.378045	80.002245	-17.127979	
1253	6.2650	716.085244	1276.208217	-25.762299	737.913823	1222.829696	-350.610779	743.135638	1353.219857	-188.287080	703.155420	1195.827954	-178.133395	556.711977	1081.594145	101.914071	680.799124	943.874738	-30.059135	531.808310	1073.271693	-481.499059	663.237182	925.959338	-384.676734	178.122360	1209.524917	-236.495210	351.396931	1124.301588	-373.520375	300.511692	1190.245682	-56.081500	350.050281	1068.398651	-336.689231	332.108302	1140.260711	-84.292282	214.410869	1246.903163	-210.672921	222.138533	1236.325296	-268.352830	285.451711	1134.749094	-15.552898	283.070616	1047.419726	-402.018004	390.509426	1053.240421	-17.735944	472.227532	1016.417746	-27.067995	521.239281	945.508161	-29.755044	492.456859	1041.663083	-48.815285	570.651702	857.340684	-60.558352	552.683179	839.594553	-174.249322	487.310552	767.244493	-33.993377	434.971071	700.876506	-50.881250	354.662614	663.237413	-48.092149	448.182380	685.328897	-86.800229	277.464617	615.458335	-50.745120	206.998545	628.641424	-96.171361	400.258535	431.412635	-102.275428	317.914642	481.838941	-30.007222	258.625233	924.837602	-423.330710	280.552007	840.411063	-423.643246	317.364933	839.747132	-414.787518	256.440800	754.352032	-415.490016	248.774913	639.330038	-390.200931	257.862018	618.685709	-272.561728	124.877199	297.494189	-366.866883	65.481909	317.681367	-318.238285	176.836618	157.808945	-401.411277	209.011692	539.926745	-406.757500	204.551105	454.543007	-390.339348	156.461255	379.989148	-380.158193	234.808639	448.963007	-365.819043	244.498976	99.413663	-346.387653	-156.917715	857.700953	-214.224977	-49.656462	83.912988	-414.544655	-49.383299	80.040146	-17.125346	
1254	6.2700	716.560788	1274.220252	-24.890804	738.209299	1221.547121	-349.704248	744.055224	1351.951440	-187.365349	702.949792	1194.470621	-177.624656	555.661956	1080.873775	102.030702	680.587844	944.224316	-30.394768	532.291562	1073.014685	-482.011146	663.464783	925.721240	-385.028811	178.063172	1212.344163	-236.368425	350.978140	1126.573929	-373.465094	299.488774	1192.714462	-57.423268	349.067220	1070.816857	-336.600650	330.977103	1142.696273	-85.792960	214.692696	1250.170396	-210.805760	222.281381	1239.353973	-268.429729	285.314028	1138.137244	-16.867745	282.282239	1050.321811	-402.175732	389.312877	1055.312512	-18.664031	471.209892	1018.125228	-27.583619	519.201744	946.888060	-29.662290	487.378640	1042.786139	-50.518843	569.305062	858.281179	-60.709567	551.211632	840.469310	-174.660306	486.737380	766.765116	-33.834381	435.917660	698.895574	-50.956087	356.240226	660.048617	-47.788911	449.671453	683.769193	-86.316642	280.286214	609.633207	-50.452694	209.201474	619.961759	-95.760849	410.909442	431.108451	-102.112657	326.290875	477.927268	-29.834068	259.358721	926.768869	-423.357950	283.034350	842.845884	-423.892708	319.871011	842.902355	-414.831230	260.579288	756.277778	-416.097729	253.026374	641.532396	-390.505333	262.356184	621.331159	-272.855226	120.134590	303.500659	-366.240875	61.535516	325.046619	-317.517061	167.604058	162.235271	-401.022921	210.900382	543.066592	-406.874937	204.176681	457.834453	-389.591805	154.250105	384.892335	-379.720403	233.947291	451.327718	-364.150669	233.843569	102.037225	-346.395283	-153.569958	857.377554	-211.959098	-49.632397	84.005762	-414.508435	-49.376702	80.074541	-17.109393	
1255	6.2750	717.050442	1272.188057	-24.265715	738.441244	1220.229735	-348.906391	745.148470	1350.751963	-186.607545	702.706693	1193.190529	-177.308695	554.715745	1080.329775	101.975723	680.364850	944.563769	-30.853907	532.719759	1072.840107	-482.509390	663.783895	925.478843	-385.512994	178.424178	1215.943625	-235.922831	350.297571	1129.066872	-373.595505	299.828109	1195.283838	-57.511434	347.997692	1073.403544	-336.864898	330.659792	1144.785054	-85.847820	215.270986	1253.415752	-210.694530	222.602320	1242.325998	-268.217570	285.138967	1141.336139	-17.080030	281.391050	1053.284801	-402.491418	388.044152	1057.681718	-17.835576	469.357355	1019.355799	-27.533532	516.853866	947.669588	-29.491886	486.267783	1043.774852	-50.669137	567.534553	858.564243	-60.791498	548.818776	840.118982	-174.667173	485.443785	765.277184	-33.669976	436.187695	696.123137	-50.661079	357.343130	655.785611	-47.400433	450.644189	681.296480	-85.728156	283.262217	602.770433	-50.553274	210.996967	610.347166	-95.031319	420.789375	430.313549	-102.394473	334.277588	473.236822	-29.673579	260.492061	928.940910	-423.354093	286.169974	845.571869	-424.061248	322.994075	846.448208	-414.838832	265.821987	758.505766	-416.491979	258.293465	644.001862	-390.857093	267.651512	624.191480	-273.393067	116.010007	310.001261	-365.651396	58.094910	333.059307	-316.905792	158.732392	167.320614	-400.495029	213.782471	546.626797	-407.047276	204.729237	461.709340	-389.233025	152.770533	390.139864	-379.412035	234.230611	454.478557	-363.692114	223.426575	105.190975	-346.455843	-157.018365	857.841091	-214.036903	-49.622278	84.113809	-414.467435	-49.355815	80.115558	-17.080086	
1256	6.2800	717.646908	1270.056058	-23.766445	738.594134	1218.859536	-348.111300	746.303383	1349.586643	-185.918547	702.492661	1192.058643	-176.915650	553.834601	1079.927344	101.850893	680.161351	944.964844	-31.127274	533.128351	1072.649590	-482.967536	664.060563	925.223388	-385.960223	178.859698	1219.202119	-235.353925	349.435334	1131.724770	-373.862425	297.212004	1196.961056	-60.435628	347.071884	1076.096588	-337.545214	327.208640	1146.040943	-89.010559	215.948712	1256.410336	-210.174885	223.126415	1245.260584	-267.790412	285.082072	1143.960490	-17.383185	280.315232	1056.442237	-402.977811	386.664585	1058.991114	-17.725327	466.690346	1018.494040	-28.276290	514.081439	947.831854	-29.065759	484.570764	1043.868007	-51.088191	564.870493	857.891003	-59.965092	544.666138	838.747020	-175.670554	483.544427	762.943479	-33.318682	435.010401	692.390689	-50.359818	358.179036	650.325752	-47.117473	451.087543	677.829693	-85.007334	285.630375	594.988843	-50.232038	212.961383	599.565436	-94.921843	430.081591	428.903399	-102.570373	341.776305	467.878034	-29.457438	261.938856	931.241066	-423.468369	289.922636	848.643663	-424.032016	326.670993	850.592924	-414.787688	272.020452	761.013744	-416.618805	264.389856	646.589237	-391.250951	273.583545	627.270545	-274.028826	112.436667	316.921376	-365.190175	55.274519	341.669511	-316.508982	150.366190	172.809468	-400.115977	217.521108	550.295260	-407.318088	206.034193	465.928129	-388.980428	152.069746	395.844910	-379.227842	235.205982	457.945640	-363.229476	213.272014	108.825911	-346.434218	-156.981668	857.921546	-213.706216	-49.600242	84.239037	-414.407845	-49.347010	80.213738	-17.052868	
